<?xml version="1.0" standalone="no"?>
<!DOCTYPE svg PUBLIC "-//W3C//DTD SVG 20010904//EN"
 "http://www.w3.org/TR/2001/REC-SVG-20010904/DTD/svg10.dtd">
<svg version="1.0" xmlns="http://www.w3.org/2000/svg"
 width="373.000000pt" height="373.000000pt" viewBox="0 0 373.000000 373.000000"
 preserveAspectRatio="xMidYMid meet">
<metadata>
Created by potrace 1.11, written by Peter Selinger 2001-2013
</metadata>
<g transform="translate(0.000000,373.000000) scale(0.100000,-0.100000)"
fill="#000000" stroke="none">
<path d="M1001 3574 c-26 -33 -26 -50 -2 -105 10 -24 33 -78 51 -121 30 -74
40 -85 88 -94 25 -5 72 35 72 61 0 13 -22 72 -59 160 -5 11 -15 35 -22 54 -27
72 -90 94 -128 45z"/>
<path d="M1761 3583 c-24 -21 -111 -227 -111 -263 1 -55 67 -87 108 -53 28 23
112 226 112 269 0 56 -64 84 -109 47z"/>
<path d="M1280 3192 c-208 -57 -370 -221 -425 -432 -21 -81 -14 -247 15 -330
42 -123 147 -252 257 -316 l43 -26 -60 -29 c-195 -98 -277 -368 -169 -558 96
-168 252 -235 604 -258 233 -15 1074 -7 1265 12 19 2 69 6 111 9 268 22 430
172 431 398 0 109 -41 207 -118 282 -45 43 -48 48 -51 107 -1 34 -9 90 -18
123 -15 64 -115 270 -176 365 -149 234 -452 327 -714 221 -62 -25 -115 -60
-189 -125 -31 -27 -59 -48 -63 -45 -3 3 -7 34 -9 70 -11 227 -166 432 -389
515 -94 36 -249 43 -345 17z"/>
<path d="M472 3050 c-30 -29 -30 -84 1 -104 34 -23 236 -106 257 -106 54 0 85
81 44 119 -22 21 -235 111 -262 111 -10 0 -28 -9 -40 -20z"/>
<path d="M2200 3019 c-122 -52 -140 -67 -140 -109 0 -30 37 -70 64 -70 33 0
241 91 263 115 15 17 20 33 17 52 -13 72 -59 75 -204 12z"/>
<path d="M655 2378 c-27 -11 -70 -29 -95 -39 -76 -32 -94 -44 -106 -68 -23
-45 15 -102 64 -96 32 4 214 78 250 101 31 20 31 86 0 108 -29 21 -53 20 -113
-6z"/>
<path d="M1481 1072 c-13 -10 -48 -88 -91 -207 -39 -104 -74 -199 -79 -210
-27 -59 -71 -190 -71 -209 0 -12 11 -33 24 -45 31 -29 87 -23 104 12 29 57
222 584 222 607 -1 55 -67 87 -109 52z"/>
<path d="M1907 1068 c-24 -21 -93 -197 -289 -733 -17 -44 -37 -96 -46 -115
-35 -77 -13 -139 51 -140 28 0 77 38 77 60 0 6 61 174 136 373 212 564 196
511 167 545 -28 33 -66 37 -96 10z"/>
<path d="M2352 1083 c-28 -5 -38 -26 -102 -199 -54 -145 -121 -324 -145 -384
-67 -171 -93 -254 -85 -274 25 -66 104 -65 134 2 33 77 288 758 290 777 3 31
-14 62 -41 74 -13 6 -25 10 -26 10 -1 -1 -12 -4 -25 -6z"/>
<path d="M2770 1077 c-27 -14 -36 -33 -140 -317 -40 -107 -79 -210 -87 -229
-27 -61 -28 -105 -2 -130 30 -27 70 -27 96 2 24 26 233 581 233 617 0 31 -8
44 -37 59 -27 14 -32 14 -63 -2z"/>
</g>
</svg>
